<svg width="91" height="30" viewBox="0 0 91 30" fill="none" xmlns="http://www.w3.org/2000/svg">
<path d="M45.1504 11.793C45.1504 15.3086 43.6504 17.3125 40.6504 17.8047L45.3965 28H41.4062L36.7305 17.9277H28.8379V28H25.2344V2.79297H39.0332C43.1113 2.79297 45.1504 4.83789 45.1504 8.92773V11.793ZM28.8379 14.3242H38.8398C39.8008 14.3242 40.4922 14.1133 40.9141 13.6914C41.3359 13.2695 41.5469 12.5781 41.5469 11.6172V9.10352C41.5469 8.14258 41.3359 7.45117 40.9141 7.0293C40.4922 6.60742 39.8008 6.39648 38.8398 6.39648H28.8379V14.3242Z" fill="black"/>
<path d="M47.2344 2.79297H65.6035V6.39648H50.8379V13.6035H63.4414V17.207H50.8379V24.3965H65.6035V28H47.2344V2.79297Z" fill="black"/>
<path d="M89.5352 18.5801L69.8828 27V23.3262L85.6152 16.7344L69.8828 10.1074V6.45117L89.5352 14.8711V18.5801Z" fill="black"/>
<path d="M89.5352 18.5801L89.929 19.4993L90.5352 19.2396V18.5801H89.5352ZM69.8828 27H68.8828V28.5164L70.2766 27.9192L69.8828 27ZM69.8828 23.3262L69.4964 22.4039L68.8828 22.6609V23.3262H69.8828ZM85.6152 16.7344L86.0017 17.6567L88.1971 16.7368L86.0034 15.8128L85.6152 16.7344ZM69.8828 10.1074H68.8828V10.7713L69.4946 11.029L69.8828 10.1074ZM69.8828 6.45117L70.2766 5.53198L68.8828 4.93481V6.45117H69.8828ZM89.5352 14.8711H90.5352V14.2116L89.929 13.9519L89.5352 14.8711ZM89.1413 17.6609L69.489 26.0808L70.2766 27.9192L89.929 19.4993L89.1413 17.6609ZM70.8828 27V23.3262H68.8828V27H70.8828ZM70.2693 24.2485L86.0017 17.6567L85.2288 15.8121L69.4964 22.4039L70.2693 24.2485ZM86.0034 15.8128L70.271 9.18584L69.4946 11.029L85.227 17.656L86.0034 15.8128ZM70.8828 10.1074V6.45117H68.8828V10.1074H70.8828ZM69.489 7.37036L89.1413 15.7903L89.929 13.9519L70.2766 5.53198L69.489 7.37036ZM88.5352 14.8711V18.5801H90.5352V14.8711H88.5352Z" fill="black"/>
<path d="M1.44141 14.8711L21.0938 6.45117V10.1074L5.32617 16.7344L21.0938 23.3262V27L1.44141 18.5801V14.8711Z" fill="black"/>
<path d="M1.44141 14.8711L1.04759 13.9519L0.441406 14.2116V14.8711H1.44141ZM21.0938 6.45117H22.0938V4.93481L20.6999 5.53198L21.0938 6.45117ZM21.0938 10.1074L21.4812 11.0293L22.0938 10.7719V10.1074H21.0938ZM5.32617 16.7344L4.93871 15.8125L2.73942 16.7368L4.94046 17.657L5.32617 16.7344ZM21.0938 23.3262H22.0938V22.6604L21.4795 22.4036L21.0938 23.3262ZM21.0938 27L20.6999 27.9192L22.0938 28.5164V27H21.0938ZM1.44141 18.5801H0.441406V19.2396L1.04759 19.4993L1.44141 18.5801ZM1.83523 15.7903L21.4876 7.37036L20.6999 5.53198L1.04759 13.9519L1.83523 15.7903ZM20.0938 6.45117V10.1074H22.0938V6.45117H20.0938ZM20.7063 9.18554L4.93871 15.8125L5.71363 17.6563L21.4812 11.0293L20.7063 9.18554ZM4.94046 17.657L20.708 24.2488L21.4795 22.4036L5.71188 15.8118L4.94046 17.657ZM20.0938 23.3262V27H22.0938V23.3262H20.0938ZM21.4876 26.0808L1.83523 17.6609L1.04759 19.4993L20.6999 27.9192L21.4876 26.0808ZM2.44141 18.5801V14.8711H0.441406V18.5801H2.44141Z" fill="black" fill-opacity="0.75"/>
</svg>
